<?xml version="1.0" encoding="utf-8" ?>
<svg xmlns="http://www.w3.org/2000/svg" xmlns:xlink="http://www.w3.org/1999/xlink" width="1024" height="1024">
	<path fill="#FDFCFE" d="M0 0L1024 0L1024 1024L0 1024L0 0Z"/>
	<path fill="#9F63E4" d="M153.32 434.462L152.982 692.094Q152.766 734.695 153.272 777.294C153.539 789.897 152.991 802.631 155.126 815.1C156.853 825.186 160.148 836.439 165.188 845.389C167.759 849.955 173.21 855.879 174.368 860.922C167.734 856.141 161.568 850.251 155.739 844.526Q153.254 842.081 150.83 839.576Q148.406 837.071 146.044 834.507Q143.682 831.943 141.385 829.321Q139.087 826.699 136.855 824.021Q134.623 821.344 132.458 818.612Q130.293 815.88 128.195 813.095Q126.098 810.311 124.07 807.475Q122.043 804.639 120.086 801.755Q118.128 798.87 116.243 795.938Q114.358 793.006 112.545 790.028Q110.733 787.05 108.995 784.028Q107.256 781.007 105.593 777.943Q103.93 774.879 102.343 771.775Q100.756 768.672 99.2458 765.53Q97.7359 762.388 96.304 759.209Q94.8721 756.031 93.5191 752.818Q92.1661 749.605 90.8928 746.36Q89.6196 743.115 88.4268 739.839Q87.2341 736.564 86.1225 733.26Q85.011 729.956 83.9814 726.625Q82.9518 723.295 82.0047 719.94Q81.0577 716.585 80.1937 713.208Q79.3298 709.831 78.5495 706.433Q77.7691 703.035 77.073 699.62Q76.3768 696.204 75.7651 692.772Q75.1535 689.34 74.6267 685.894Q74.1 682.448 73.6585 678.99Q73.217 675.532 72.861 672.064Q72.5051 668.597 72.2348 665.121Q71.9645 661.646 71.7801 658.164Q71.5958 654.683 71.4974 651.199Q71.399 647.714 71.3867 644.228Q71.3377 641.373 71.3438 638.517Q71.35 635.661 71.4112 632.806Q71.4725 629.951 71.5889 627.098Q71.7053 624.245 71.8767 621.394Q72.0481 618.543 72.2746 615.697Q72.501 612.85 72.7824 610.008Q73.0637 607.166 73.3999 604.331Q73.7361 601.495 74.1269 598.666Q74.5178 595.837 74.9632 593.016Q75.4086 590.196 75.9084 587.384Q76.4081 584.572 76.9621 581.771Q77.5161 578.969 78.124 576.179Q78.7319 573.389 79.3936 570.611Q80.0553 567.833 80.7705 565.068Q81.4858 562.304 82.2542 559.553Q83.0227 556.803 83.8441 554.068Q84.6655 551.333 85.5395 548.614Q86.4136 545.896 87.34 543.194Q88.2663 540.493 89.2447 537.81Q90.2231 535.127 91.253 532.464Q92.283 529.8 93.3642 527.157Q94.4454 524.514 95.5774 521.892Q96.7095 519.271 97.8919 516.671Q99.0744 514.072 100.307 511.496Q101.539 508.92 102.821 506.368Q104.103 503.816 105.434 501.289Q106.765 498.763 108.144 496.262Q109.524 493.762 110.951 491.289Q112.379 488.815 113.854 486.37Q115.329 483.925 116.851 481.508Q118.372 479.092 119.941 476.705Q121.509 474.319 123.123 471.963C132.199 458.633 142.004 445.983 153.32 434.462Z"/>
	<path fill="#9F63E4" d="M617.818 104.117C688.71 83.8894 754.077 90.8479 818.679 126.881C877.966 159.95 923.089 220.134 941.498 285.116Q942.505 288.619 943.426 292.145Q944.347 295.671 945.18 299.219Q946.013 302.767 946.759 306.335Q947.504 309.902 948.161 313.487Q948.818 317.072 949.387 320.672Q949.955 324.272 950.435 327.885Q950.914 331.497 951.304 335.121Q951.694 338.745 951.995 342.377Q952.295 346.009 952.506 349.647Q952.717 353.286 952.838 356.928Q952.958 360.571 952.989 364.215Q953.02 367.86 952.961 371.504Q952.902 375.148 952.753 378.789Q952.604 382.431 952.365 386.067Q952.126 389.704 951.798 393.334Q951.469 396.964 951.051 400.584Q950.633 404.204 950.126 407.814Q949.618 411.423 949.022 415.018Q948.426 418.613 947.741 422.193Q947.056 425.773 946.283 429.334Q945.51 432.896 944.649 436.437Q943.789 439.979 942.841 443.498Q941.893 447.017 940.859 450.512Q939.824 454.006 938.704 457.475Q937.583 460.943 936.378 464.382Q935.172 467.821 933.882 471.23Q932.592 474.638 931.218 478.014Q929.844 481.39 928.387 484.73Q926.93 488.071 925.391 491.375Q923.852 494.678 922.232 497.943Q920.612 501.208 918.912 504.431Q917.212 507.655 915.433 510.836C899.955 538.48 876.034 569.107 851.992 589.698C851.912 570.419 852.3 551.132 852.374 531.852L852.202 339.544L852.191 288.081C852.183 273.93 852.984 259.334 850.019 245.422Q849.636 243.675 849.191 241.943Q848.747 240.212 848.241 238.496Q847.735 236.781 847.17 235.085Q846.604 233.389 845.978 231.714Q845.353 230.038 844.669 228.386Q843.984 226.734 843.242 225.108Q842.5 223.481 841.701 221.881Q840.901 220.282 840.046 218.712Q839.191 217.141 838.281 215.602Q837.37 214.063 836.406 212.557Q835.442 211.051 834.425 209.58Q833.409 208.109 832.341 206.675Q831.273 205.241 830.155 203.846Q829.036 202.45 827.87 201.095Q826.703 199.74 825.489 198.427Q824.275 197.114 823.016 195.845Q821.614 194.453 820.154 193.12Q818.695 191.788 817.181 190.517Q815.668 189.247 814.103 188.04Q812.538 186.834 810.923 185.694Q809.309 184.554 807.649 183.482Q805.989 182.41 804.285 181.408Q802.582 180.406 800.838 179.476Q799.094 178.547 797.313 177.69Q795.532 176.834 793.717 176.052Q791.902 175.271 790.056 174.566Q788.21 173.861 786.336 173.233Q784.462 172.605 782.564 172.057Q780.666 171.508 778.746 171.038Q776.826 170.569 774.889 170.18Q772.951 169.791 770.999 169.483Q769.047 169.175 767.084 168.949C756.227 167.718 745.084 168.084 734.171 168.087L690.106 168.127C689.323 154.974 683.617 141.888 675.57 131.573C665.426 118.57 649.454 108.689 633.207 105.682C628.057 104.728 622.974 104.748 617.818 104.117Z"/>
	<path fill="#22144B" d="M617.818 104.117C622.974 104.748 628.057 104.728 633.207 105.682C649.454 108.689 665.426 118.57 675.57 131.573C683.617 141.888 689.323 154.974 690.106 168.127L734.171 168.087C745.084 168.084 756.227 167.718 767.084 168.949Q769.047 169.175 770.999 169.483Q772.951 169.791 774.889 170.18Q776.826 170.569 778.746 171.038Q780.666 171.508 782.564 172.057Q784.462 172.605 786.336 173.233Q788.21 173.861 790.056 174.566Q791.902 175.271 793.718 176.052Q795.533 176.834 797.313 177.69Q799.094 178.547 800.838 179.476Q802.582 180.406 804.285 181.408Q805.989 182.41 807.649 183.482Q809.309 184.554 810.923 185.694Q812.538 186.834 814.103 188.04Q815.668 189.247 817.181 190.517Q818.695 191.788 820.154 193.12Q821.614 194.453 823.016 195.845Q824.275 197.114 825.489 198.427Q826.703 199.74 827.87 201.095Q829.036 202.45 830.155 203.846Q831.273 205.241 832.341 206.675Q833.409 208.109 834.425 209.58Q835.442 211.051 836.406 212.557Q837.37 214.063 838.281 215.602Q839.191 217.141 840.046 218.712Q840.901 220.282 841.701 221.881Q842.5 223.481 843.242 225.108Q843.984 226.734 844.669 228.386Q845.353 230.038 845.978 231.714Q846.604 233.389 847.17 235.085Q847.735 236.781 848.241 238.496Q848.747 240.212 849.191 241.943Q849.636 243.675 850.019 245.422C852.984 259.334 852.183 273.93 852.191 288.081L852.202 339.544L852.374 531.852C852.3 551.132 851.912 570.419 851.992 589.698L852.115 759.791L852.04 803.248C852.024 816.673 852.787 830.516 849.974 843.716Q849.62 845.373 849.209 847.016Q848.797 848.659 848.328 850.287Q847.858 851.915 847.332 853.525Q846.805 855.135 846.223 856.726Q845.64 858.317 845.001 859.886Q844.363 861.455 843.669 863.001Q842.976 864.546 842.229 866.067Q841.481 867.587 840.681 869.08Q839.88 870.573 839.028 872.037Q838.175 873.501 837.272 874.934Q836.368 876.367 835.415 877.767Q834.461 879.168 833.459 880.534Q832.457 881.899 831.407 883.229Q830.357 884.559 829.261 885.851Q828.166 887.142 827.025 888.395Q825.884 889.647 824.7 890.859C791.571 924.231 760.002 920.955 717.351 921.021L651.3 921.138L373.723 921.079L299.216 921.077C283.555 921.082 266.665 922.283 251.238 919.498Q249.458 919.178 247.691 918.791Q245.925 918.404 244.174 917.95Q242.424 917.496 240.692 916.976Q238.96 916.455 237.249 915.87Q235.538 915.284 233.85 914.634Q232.163 913.984 230.501 913.27Q228.839 912.556 227.206 911.78Q225.573 911.003 223.97 910.165Q222.368 909.328 220.798 908.429Q219.228 907.531 217.694 906.574Q216.16 905.617 214.663 904.602Q213.166 903.587 211.709 902.516Q210.252 901.445 208.836 900.319Q207.421 899.194 206.049 898.015Q204.677 896.837 203.351 895.607Q202.025 894.377 200.747 893.098C195.653 887.968 190.873 882.197 187.159 875.983C185.236 872.766 183.542 868.975 181.311 866.001C178.751 864.568 176.569 862.836 174.368 860.922C173.21 855.879 167.759 849.955 165.188 845.389C160.148 836.439 156.853 825.186 155.126 815.1C152.991 802.631 153.539 789.897 153.272 777.294Q152.766 734.695 152.982 692.094L153.32 434.462Q162.513 424.684 172.552 415.777L172.479 270.58C172.588 241.312 182.371 215.436 203.421 194.711Q204.921 193.258 206.481 191.87Q208.041 190.482 209.657 189.16Q211.274 187.839 212.945 186.586Q214.616 185.334 216.337 184.153Q218.059 182.972 219.829 181.864Q221.599 180.756 223.414 179.723Q225.229 178.691 227.086 177.735Q228.942 176.78 230.837 175.903Q232.733 175.026 234.663 174.23Q236.593 173.434 238.555 172.719Q240.517 172.005 242.507 171.373Q244.498 170.742 246.513 170.194Q248.528 169.647 250.564 169.185Q252.6 168.722 254.654 168.346Q256.708 167.969 258.776 167.68Q260.844 167.39 262.922 167.187C272.533 166.282 282.421 166.707 292.07 166.734L335.107 166.879C336.654 151.855 341.153 138.157 351.23 126.599Q352.078 125.626 352.963 124.687Q353.849 123.748 354.77 122.845Q355.692 121.942 356.648 121.075Q357.605 120.209 358.595 119.381Q359.584 118.553 360.606 117.764Q361.627 116.975 362.679 116.227Q363.731 115.48 364.811 114.774Q365.891 114.068 366.999 113.405Q368.106 112.742 369.238 112.123Q370.371 111.504 371.527 110.93Q372.682 110.356 373.86 109.828Q375.037 109.299 376.235 108.818Q377.432 108.337 378.647 107.902Q379.863 107.468 381.094 107.083Q382.326 106.697 383.571 106.359Q384.817 106.022 386.075 105.734C395.452 103.537 405.282 104.065 414.848 104.054L443.386 104.047L562.692 104.115Q579.546 104.095 596.399 104.245C603.258 104.307 610.273 104.717 617.104 104.177L617.818 104.117Z"/>
	<path fill="#A6AFAC" d="M318.748 188.126C324.298 187.841 329.835 187.848 335.391 187.853L335.393 228.806L256.506 228.571C258.471 224.533 260.464 220.684 263.086 217.019C276.792 197.861 296.634 191.931 318.748 188.126Z"/>
	<path fill="#7E3FBD" d="M172.552 415.777L172.455 705.504L172.464 792.682C172.458 805.704 171.449 823.824 172.828 836.359C174.173 848.573 177.851 855.007 181.311 866.001C178.751 864.568 176.569 862.836 174.368 860.922C173.21 855.879 167.759 849.955 165.188 845.389C160.148 836.439 156.853 825.186 155.126 815.1C152.991 802.631 153.539 789.897 153.272 777.294Q152.766 734.695 152.982 692.094L153.32 434.462Q162.513 424.684 172.552 415.777Z"/>
	<path fill="#607575" d="M228.933 239.505C228.847 245.48 228.912 251.56 229.427 257.514L229.571 406.539L229.548 682.463L229.601 798.617L229.526 831.571C229.506 837.49 228.983 843.982 229.755 849.842C230.013 851.8 230.992 854.7 232.445 856.121C234.266 857.902 237.926 858.214 240.399 858.42C249.287 859.16 258.662 858.562 267.593 858.532L331.204 858.561C341.832 858.593 353.076 857.928 363.636 858.915C354.233 859.336 344.735 859.065 335.32 859.044C313.466 858.994 291.553 858.575 269.706 858.916C274.664 874.633 282.771 886.533 297.65 894.349C301.02 896.119 304.472 897.712 308.207 898.521C310.869 899.097 315.587 899.248 317.895 900.363C302.565 901.058 286.978 900.842 271.628 900.778C252.409 900.699 232.408 896.159 218.368 881.982C215.228 867.387 215.647 852.3 215.698 837.453L215.783 798.433L215.607 638.407L215.776 404.185L216.004 325.829C216.053 309.5 215.506 292.885 216.804 276.605C217.879 263.132 222.026 251.067 228.933 239.505Z"/>
	<path fill="#AADDF9" d="M355.497 247.197L355.468 193.033C355.466 183.5 354.795 173.395 355.842 163.927Q356.185 160.864 356.941 157.876Q357.697 154.889 358.852 152.031C363.419 140.682 372.121 132.391 383.262 127.635C379.241 149.04 381.532 170.327 394.044 188.653C405.392 205.273 423.768 216.589 443.513 220.135C454.603 222.127 466.395 221.512 477.638 221.532L522.379 221.561L669.914 221.558C669.791 230.159 669.873 238.774 669.855 247.376L355.497 247.197Z"/>
	<path fill="#516668" d="M218.368 881.982C214.345 878.779 210.927 874.822 207.886 870.691Q206.378 868.685 205.01 866.582Q203.642 864.478 202.418 862.287Q201.195 860.096 200.123 857.828Q199.051 855.559 198.134 853.223Q197.218 850.887 196.461 848.495Q195.705 846.102 195.112 843.664Q194.519 841.225 194.092 838.753Q193.665 836.28 193.406 833.784C192.294 821.982 192.975 809.619 192.986 797.752L192.93 734.287L192.702 509.932L192.947 339.628L192.925 288.592C192.922 277.617 192.253 266.055 193.911 255.198Q194.065 254.214 194.244 253.234Q194.423 252.253 194.626 251.278Q194.829 250.303 195.056 249.332Q195.283 248.362 195.533 247.398Q195.784 246.434 196.059 245.476Q196.334 244.519 196.632 243.568Q196.931 242.617 197.252 241.675Q197.574 240.732 197.919 239.797Q198.264 238.862 198.632 237.937Q199 237.011 199.391 236.094Q199.782 235.178 200.195 234.271Q200.609 233.365 201.045 232.469Q201.48 231.573 201.938 230.688Q202.396 229.803 202.875 228.93Q203.355 228.057 203.856 227.195Q204.357 226.334 204.879 225.486Q205.401 224.637 205.944 223.802Q206.487 222.967 207.051 222.145Q207.615 221.323 208.198 220.516Q208.782 219.709 209.385 218.916Q209.989 218.123 210.612 217.346Q211.235 216.568 211.877 215.806Q212.519 215.044 213.18 214.299Q213.84 213.553 214.519 212.824Q215.198 212.095 215.895 211.382Q216.592 210.67 217.306 209.976Q218.02 209.281 218.751 208.604Q219.482 207.927 220.23 207.269Q220.978 206.611 221.741 205.971Q222.505 205.331 223.285 204.71Q224.064 204.09 224.858 203.488Q225.653 202.887 226.462 202.306C248.559 186.097 267.315 187.408 293.136 187.452C301.515 187.466 310.468 186.851 318.748 188.126C296.634 191.931 276.792 197.861 263.086 217.019C260.464 220.684 258.471 224.533 256.506 228.571C249.101 228.571 238.525 226.794 232.861 232.408C231.462 233.794 230.545 235.5 229.536 237.17C229.528 243.9 229.839 250.806 229.427 257.514C228.912 251.56 228.847 245.48 228.933 239.505C222.026 251.067 217.879 263.132 216.804 276.605C215.506 292.885 216.053 309.5 216.004 325.829L215.776 404.185L215.607 638.407L215.783 798.433L215.698 837.453C215.647 852.3 215.228 867.387 218.368 881.982Z"/>
	<path fill="#FDFCFE" d="M441.3 124.6C482.059 123.964 522.907 124.575 563.677 124.597L601.061 124.627C611.361 124.64 622.192 123.97 632.316 126.069C640.47 127.759 648.947 132.877 654.91 138.597C658.981 142.503 662.62 147.207 664.912 152.387C667.289 156.816 668.699 161.652 669.42 166.615C670.51 174.12 670.042 182.026 670.025 189.6C670.001 200.248 670.083 210.912 669.914 221.558L522.379 221.561L477.638 221.532C466.395 221.512 454.603 222.127 443.513 220.135C423.768 216.589 405.392 205.273 394.044 188.653C381.532 170.327 379.241 149.04 383.262 127.635C396.284 122.595 426.325 124.508 441.3 124.6Z"/>
	<path fill="#A6AFAC" d="M690.424 188.539L732.637 188.5C763.086 188.489 785.506 187.808 808.845 211.16Q809.941 212.24 810.993 213.364Q812.044 214.488 813.05 215.653Q814.056 216.818 815.013 218.023Q815.971 219.227 816.88 220.47Q817.788 221.712 818.646 222.99Q819.504 224.268 820.309 225.579Q821.115 226.891 821.867 228.233Q822.619 229.576 823.316 230.948Q824.014 232.32 824.655 233.719Q825.297 235.118 825.881 236.542Q826.466 237.966 826.993 239.412Q827.52 240.858 827.988 242.324Q828.456 243.79 828.865 245.274Q829.273 246.758 829.622 248.257Q829.97 249.756 830.258 251.268Q830.546 252.78 830.773 254.302C832.038 262.585 831.716 271.117 831.71 279.473L831.681 311.524L831.689 426.191L831.58 821.661C831.467 843.922 824.437 862.744 808.382 878.477Q807.317 879.507 806.215 880.497Q805.112 881.487 803.973 882.435Q802.834 883.382 801.66 884.287Q800.487 885.191 799.28 886.051Q798.073 886.911 796.835 887.725Q795.597 888.539 794.329 889.306Q793.062 890.073 791.766 890.792Q790.471 891.511 789.149 892.181Q787.828 892.851 786.482 893.471Q785.136 894.091 783.768 894.66Q782.4 895.229 781.012 895.747Q779.623 896.264 778.216 896.729Q776.81 897.194 775.386 897.606Q773.963 898.019 772.525 898.377Q771.088 898.736 769.638 899.04Q768.188 899.344 766.727 899.594C752.886 901.871 731.132 900.574 716.538 900.549L625.637 900.499L424.453 900.495C390.23 900.495 355.929 900.964 321.714 900.451Q319.804 900.421 317.895 900.363C315.587 899.248 310.869 899.097 308.207 898.521C304.472 897.712 301.02 896.119 297.65 894.349C282.771 886.533 274.664 874.633 269.706 858.916C291.553 858.575 313.466 858.994 335.32 859.044C344.735 859.065 354.233 859.336 363.636 858.915L639.949 858.928L732.041 858.841C747.962 858.82 764.098 859.314 779.992 858.672C782.96 858.551 787.651 858.318 789.827 856.203C795.149 851.029 793.797 843.064 793.767 836.258L793.588 433.213L793.583 307.575L793.567 268.975C793.592 261.63 793.976 254.086 793.536 246.761C793.287 242.61 792.228 239.043 789.234 236.021C787.341 234.11 784.667 232.461 782.015 231.896C774.428 230.281 764.951 231.358 757.123 231.363L714.881 231.385C706.784 231.387 698.551 231.657 690.472 231.226L690.424 188.539Z"/>
	<defs>
		<linearGradient id="gradient_0" gradientUnits="userSpaceOnUse" x1="274.61514" y1="839.94122" x2="574.97675" y2="164.39894">
			<stop offset="0" stop-color="#DBC0EF"/>
			<stop offset="1" stop-color="#FAF7FA"/>
		</linearGradient>
	</defs>
	<path fill="url(#gradient_0)" d="M249.968 249.401Q277.828 249.102 305.689 249.175C315.267 249.173 325.38 248.514 334.898 249.459C332.598 252.797 330.855 255.993 331.535 260.253C331.913 262.622 333.272 264.318 335.194 265.672C337.698 267.434 342.288 267.324 345.292 267.414C372.838 268.231 400.66 267.453 428.234 267.429L579.317 267.461L649.126 267.447C658.176 267.447 672.739 268.452 681.329 266.896C684.209 266.374 687.215 264.067 688.705 261.573C690.555 258.477 690.57 255.058 690.504 251.57L773.617 251.461L773.536 318.761L773.516 410.721C773.512 425.685 774.224 441.032 773.462 455.958L773.517 544.55L773.516 838.403L474.681 838.236L473.982 838.055C467.055 839.026 459.265 838.375 452.247 838.363L409.577 838.334C362.275 838.414 314.829 839.188 267.542 838.339C261.763 838.135 255.919 838.301 250.134 838.301L249.968 249.401Z"/>
	<path fill="#22144B" d="M433.171 594.319C432.489 600.12 429.65 605.835 425.582 610.016C419.272 616.502 411.707 617.409 403.156 617.463L348.48 617.294C338.81 617.266 324.293 618.348 315.382 616.319C310.543 615.216 305.783 611.974 302.308 608.478C299.237 605.388 296.667 601.142 295.72 596.861C293.815 588.249 294.951 575.415 294.965 566.454L294.938 515.702C294.964 505.948 295.774 496.757 303.3 489.572C310.063 483.116 318.095 482.312 326.945 482.531C321.443 485.774 316.883 489.176 315.06 495.664C312.904 503.335 313.916 513.09 313.92 521.04L313.963 553.995C313.975 563.525 313.085 573.938 314.159 583.371C314.403 585.515 315.006 587.432 316.08 589.309C318.69 593.872 323.508 597.197 328.534 598.568C334.786 600.274 366.5 599.109 374.831 599.085C387.461 599.048 400.9 599.943 413.445 598.757C416.679 598.451 419.214 597.916 422.045 596.209C426.925 593.269 430.342 588.58 432.885 583.58C433.008 587.142 432.931 590.771 433.171 594.319Z"/>
	<path fill="#22144B" d="M433.576 423.561C433.23 429.319 430.572 435.07 426.662 439.271C421.212 445.125 413.874 447.746 406.038 448.02C388.935 448.619 371.582 448.023 354.458 448.026C343.84 448.028 326.841 449.193 316.756 447.159C311.436 446.085 306.839 443.844 302.869 440.112C295.981 433.636 294.028 426.268 293.737 417.019C293.206 400.161 293.777 383.1 293.806 366.223C293.821 357.166 292.804 341.158 294.502 332.822C295.581 327.522 298.545 321.834 302.292 317.96C309.411 310.6 318.743 308.618 328.588 308.574C322.824 311.464 316.793 315.061 314.579 321.538C311.86 329.495 313.328 370.556 313.364 381.367C313.396 391.279 312.78 401.535 313.507 411.397C313.685 413.803 314.418 415.993 315.523 418.127Q315.789 418.646 316.082 419.151Q316.375 419.656 316.694 420.145Q317.013 420.634 317.357 421.105Q317.7 421.577 318.068 422.031Q318.436 422.484 318.826 422.917Q319.217 423.351 319.63 423.764Q320.042 424.177 320.476 424.568Q320.909 424.958 321.362 425.326Q321.816 425.694 322.287 426.038Q322.759 426.382 323.248 426.701Q323.736 427.02 324.241 427.313Q324.746 427.606 325.265 427.873Q325.784 428.139 326.316 428.379Q326.849 428.618 327.393 428.83Q327.937 429.041 328.491 429.224Q329.045 429.407 329.608 429.561C335.103 431.018 405.502 430.946 413.145 430.216C416.586 429.888 419.76 429.308 422.737 427.433C427.79 424.251 430.854 419.164 433.404 413.929C433.441 417.129 433.375 420.37 433.576 423.561Z"/>
	<path fill="#22144B" d="M433.432 757.051C433.627 766.29 433.781 774.488 427.978 782.302C423.846 787.866 417.111 792.147 410.211 793.172C401.623 794.447 383.762 793.492 374.405 793.496L340.205 793.5C332.924 793.499 325.346 793.942 318.142 792.831C313.796 792.161 309.963 790.369 306.442 787.774C300.187 783.164 296.544 776.985 295.45 769.304C294.535 762.876 294.975 756.075 294.985 749.595L295.048 718.809C295.073 708.354 293.993 688.224 295.569 678.649Q295.85 676.907 296.342 675.211Q296.834 673.516 297.529 671.894Q298.223 670.271 299.11 668.745Q299.997 667.219 301.064 665.813C305.356 660.263 310.955 657.302 317.861 656.395C319.632 656.495 321.507 656.473 323.246 656.813C318.671 660.504 315.332 663.189 314.605 669.478C313.46 679.385 314.365 694.633 314.365 705.078C314.366 724.977 313.786 745.084 314.564 764.96C317.018 768.933 319.898 771.909 324.611 772.966C329.777 774.126 335.945 773.579 341.249 773.587L367.914 773.61L396.741 773.612C402.517 773.611 408.44 773.85 414.192 773.302C417.505 772.987 420.117 772.347 422.958 770.514C427.207 767.772 430.127 763.386 432.417 758.979L433.432 757.051Z"/>
	<path fill="#22144B" d="M720.382 371.413C723.607 372.43 726.371 374.307 727.981 377.382C729.136 379.586 729.231 382.159 728.398 384.487C727.357 387.393 725.007 389.598 722.184 390.762C716.72 393.013 679.276 391.42 670.215 391.607C626.23 390.891 582.1 391.686 538.101 391.721C528.629 391.728 499.138 393.07 492.161 391.098C489.815 390.435 487.704 389.098 486.526 386.908C485.19 384.426 485.252 381.338 486.114 378.717C487.372 374.891 489.51 373.362 492.954 371.528L626.612 371.503C657.858 371.506 689.14 371.837 720.382 371.413Z"/>
	<path fill="#22144B" d="M538.713 537.358L693.03 537.448C700.241 537.529 713.006 536.467 719.574 538.08C721.523 538.558 723.343 539.549 724.713 541.028C726.693 543.166 727.646 546.191 727.414 549.078Q727.371 549.636 727.27 550.187Q727.169 550.738 727.01 551.275Q726.852 551.812 726.637 552.329Q726.423 552.846 726.155 553.338Q725.887 553.83 725.569 554.29Q725.251 554.751 724.886 555.176Q724.521 555.6 724.113 555.984Q723.705 556.367 723.259 556.706C721.714 557.865 719.96 558.559 718.053 558.828C713.604 559.455 708.787 558.836 704.283 558.831C693.207 558.819 682.07 558.681 671.002 558.993L547.137 558.631L509.904 558.525C504.232 558.51 498.1 558.963 492.481 558.414Q491.719 558.339 490.977 558.154Q490.234 557.968 489.527 557.677Q488.819 557.385 488.162 556.993Q487.505 556.601 486.912 556.117C484.798 554.358 483.569 551.856 483.35 549.122C483.116 546.186 484.115 543.092 486.137 540.931C487.473 539.502 489.325 538.446 491.239 538.039C496.82 536.852 503.547 537.478 509.269 537.471L538.713 537.358Z"/>
	<path fill="#FDFCFE" d="M496.45 731.368C499.837 730.027 572.388 730.942 581.185 731.002L502.635 810.109Q494.194 818.594 485.605 826.929C482.064 830.382 477.367 834.097 474.681 838.236L473.982 838.055C465.227 836.907 455.221 837.805 446.317 837.81L388.354 837.854C394.071 833.106 399.206 827.513 404.452 822.248L429.441 797.252C451.646 775.147 474.338 753.567 496.45 731.368Z"/>
	<path fill="#DFC6F3" d="M249.968 249.401Q277.828 249.102 305.689 249.175C315.267 249.173 325.38 248.514 334.898 249.459C331.204 249.648 327.529 249.67 323.831 249.655C323.844 265.691 324.212 281.816 323.683 297.841C323.35 288.899 323.529 279.954 323.455 271.009C323.397 264.141 322.978 257.094 323.396 250.246L288.019 250.266C281.369 250.266 274.34 250.695 267.74 249.91C267.062 261.794 267.847 273.767 267.675 285.665Q265.49 498.687 266.459 711.717C266.466 722.214 266.123 834.998 267.542 838.339C261.763 838.135 255.919 838.301 250.134 838.301L249.968 249.401Z"/>
	<path fill="#7E3FBD" d="M317.861 656.395C324.445 655.303 340.246 656.445 348.052 656.465L387.117 656.497C394.654 656.487 402.677 655.935 410.154 656.898C414.629 657.474 419.047 658.866 422.741 661.523C428.633 665.761 432.02 672.886 433.022 679.945C434.398 689.635 433.488 700.403 433.497 710.23C433.512 725.8 433.949 741.494 433.432 757.051L432.417 758.979C430.127 763.386 427.207 767.772 422.958 770.514C420.117 772.347 417.505 772.987 414.192 773.302C408.44 773.85 402.517 773.611 396.741 773.612L367.914 773.61L341.249 773.587C335.945 773.579 329.777 774.126 324.611 772.966C319.898 771.909 317.018 768.933 314.564 764.96C313.786 745.084 314.366 724.977 314.365 705.078C314.365 694.633 313.46 679.385 314.605 669.478C315.332 663.189 318.671 660.504 323.246 656.813C321.507 656.473 319.632 656.495 317.861 656.395Z"/>
	<path fill="#9F63E4" d="M337.099 677.558L378.589 677.776C385.074 677.801 392.406 676.847 398.743 678.226C401.685 678.867 404.2 680.373 406.347 682.464C408.459 684.52 409.788 686.871 410.434 689.743C411.811 695.87 411.262 702.871 411.299 709.127L411.392 739.502L410.397 739.533C400.094 739.749 368.314 740.65 360.04 738.502C355.188 737.243 350.808 734.552 347.26 731.039C337.639 721.512 337.446 710.199 337.298 697.508L337.099 677.558Z"/>
	<path fill="#7E3FBD" d="M429.157 496.509L446.163 480.038C449.372 476.892 452.279 472.996 455.996 470.456C457.851 469.187 459.852 468.341 462.136 468.402C464.815 468.474 467.289 469.798 469.039 471.79C470.932 473.944 471.976 476.917 471.608 479.788C471.398 481.419 470.716 483.171 469.678 484.457C466.207 488.759 461.587 492.634 457.614 496.517Q445.267 508.407 433.218 520.6Q432.878 544.941 433.255 569.282C433.352 576.906 434.484 586.977 433.171 594.319C432.931 590.771 433.008 587.142 432.885 583.58C430.342 588.58 426.925 593.269 422.045 596.209C419.214 597.916 416.679 598.451 413.445 598.757C400.9 599.943 387.461 599.048 374.831 599.085C366.5 599.109 334.786 600.274 328.534 598.568C323.508 597.197 318.69 593.872 316.08 589.309C315.006 587.432 314.403 585.515 314.159 583.371C313.085 573.938 313.975 563.525 313.963 553.995L313.92 521.04C313.916 513.09 312.904 503.335 315.06 495.664C316.883 489.176 321.443 485.774 326.945 482.531L381.687 482.348C390.895 482.281 403.302 481.093 412.025 482.867C416.466 483.771 420.44 486.401 423.566 489.604C425.636 491.725 427.388 494.138 429.157 496.509Z"/>
	<path fill="#9F63E4" d="M413.4 540.1C415.15 543.286 414.21 555.631 413.966 559.741C410.974 564.739 407.587 567.869 401.748 569.329C396.55 570.629 388.139 570.885 383.058 569.332Q397.814 554.286 413.4 540.1Z"/>
	<path fill="#9F63E4" d="M337.508 503.102L379.553 503.007C386.793 502.995 395.067 502.209 402.18 503.544C407.152 504.477 410.224 507.966 412.928 511.99C398.279 527.213 382.816 542.089 367.497 556.646Q357.739 547.158 348.259 537.392C345.952 535.052 342.743 532.508 340.856 529.896C337.709 521.585 337.749 511.885 337.508 503.102Z"/>
	<path fill="#22144B" d="M429.157 496.509L446.163 480.038C449.372 476.892 452.279 472.996 455.996 470.456C457.851 469.187 459.852 468.341 462.136 468.402C464.815 468.474 467.289 469.798 469.039 471.79C470.932 473.944 471.976 476.917 471.608 479.788C471.398 481.419 470.716 483.171 469.678 484.457C466.207 488.759 461.587 492.634 457.614 496.517Q445.267 508.407 433.218 520.6L413.4 540.1Q397.814 554.286 383.058 569.332C379.829 571.885 377.505 575.517 373.977 577.787C371.333 579.487 368.323 579.916 365.269 579.149C363.238 578.639 361.426 577.616 359.789 576.335C355.396 572.896 328.704 546.606 326.442 542.656C325.181 540.456 325.298 537.291 326.134 534.972C327.021 532.513 328.958 530.097 331.387 529.031C334.596 527.622 337.814 528.578 340.856 529.896C342.743 532.508 345.952 535.052 348.259 537.392Q357.739 547.158 367.497 556.646C382.816 542.089 398.279 527.213 412.928 511.99C418.063 506.562 423.771 501.686 429.157 496.509Z"/>
	<path fill="#7E3FBD" d="M429.769 322.47Q436.906 315.815 443.907 309.018C447.265 305.716 450.725 301.423 454.649 298.868C456.352 297.76 458.227 297.12 460.274 297.219Q460.817 297.249 461.355 297.336Q461.892 297.423 462.417 297.567Q462.942 297.711 463.448 297.91Q463.955 298.109 464.438 298.361Q464.92 298.612 465.374 298.914Q465.827 299.216 466.245 299.564Q466.664 299.911 467.043 300.302Q467.422 300.692 467.758 301.121C469.386 303.169 470.197 305.8 469.797 308.406C469.512 310.263 468.598 311.83 467.42 313.263C465.022 316.18 462.008 318.656 459.311 321.298C451.62 328.834 440.577 338.745 434.025 346.81L433.899 397.89C433.895 406.116 434.757 415.445 433.576 423.561C433.375 420.37 433.441 417.129 433.404 413.929C430.854 419.164 427.79 424.251 422.737 427.433C419.76 429.308 416.586 429.888 413.145 430.216C405.502 430.946 335.103 431.018 329.608 429.561Q329.045 429.407 328.491 429.224Q327.937 429.041 327.393 428.83Q326.849 428.618 326.316 428.379Q325.784 428.139 325.265 427.873Q324.746 427.606 324.241 427.313Q323.736 427.02 323.248 426.701Q322.759 426.382 322.287 426.038Q321.816 425.694 321.362 425.326Q320.909 424.958 320.476 424.567Q320.042 424.177 319.63 423.764Q319.217 423.351 318.826 422.917Q318.436 422.484 318.068 422.031Q317.7 421.577 317.357 421.106Q317.013 420.634 316.694 420.145Q316.375 419.656 316.082 419.151Q315.789 418.646 315.523 418.127C314.418 415.993 313.685 413.803 313.507 411.397C312.78 401.535 313.396 391.279 313.364 381.367C313.328 370.556 311.86 329.495 314.579 321.538C316.793 315.061 322.824 311.464 328.588 308.574L377.457 308.696C387.425 308.675 403.619 307.301 412.994 309.616C417.508 310.73 421.665 313.424 424.961 316.667C426.704 318.383 428.408 320.436 429.769 322.47Z"/>
	<path fill="#9F63E4" d="M383.139 396.886C393.551 386.463 404.255 376.317 414.753 365.978C414.881 372.552 416.772 385.282 411.769 390.289C405.704 396.36 393.298 397.22 385.218 396.969C384.526 396.948 383.83 396.934 383.139 396.886Z"/>
	<path fill="#9F63E4" d="M336.971 326.066C362.617 325.837 388.347 326.263 413.999 326.457Q413.979 332.024 414.197 337.586Q396.413 355.186 378.899 373.054C368.122 372.419 356.718 371.343 348.397 363.632C338.21 354.193 337.351 339.012 336.971 326.066Z"/>
	<path fill="#22144B" d="M429.769 322.47Q436.906 315.815 443.907 309.018C447.265 305.716 450.725 301.423 454.649 298.868C456.352 297.76 458.227 297.12 460.274 297.219Q460.817 297.249 461.355 297.336Q461.892 297.423 462.417 297.567Q462.942 297.711 463.448 297.91Q463.955 298.109 464.438 298.361Q464.92 298.612 465.374 298.914Q465.827 299.216 466.245 299.564Q466.664 299.911 467.043 300.302Q467.422 300.692 467.758 301.121C469.386 303.169 470.197 305.8 469.797 308.406C469.512 310.263 468.598 311.83 467.42 313.263C465.022 316.18 462.008 318.656 459.311 321.298C451.62 328.834 440.577 338.745 434.025 346.81C427.577 353.126 420.793 359.272 414.753 365.978C404.255 376.317 393.551 386.463 383.139 396.886C377.634 401.563 374.706 408.911 366.653 409.925C363.38 410.337 359.956 407.585 357.542 405.597C351.694 400.782 329.017 378.239 325.218 372.748C324.224 371.312 323.729 369.936 323.612 368.185C323.418 365.281 324.516 362.601 326.503 360.506C328.487 358.414 330.648 357.411 333.537 357.434C335.804 357.452 337.877 358.026 339.709 359.391C343.09 361.908 346.083 366.016 349.045 369.086Q357.555 377.78 366.239 386.299Q372.687 379.789 378.899 373.054Q396.413 355.186 414.197 337.586L429.769 322.47Z"/>
	<path fill="#DFC6F3" d="M720.382 371.413C725.347 365.626 731.948 360.508 737.384 355.085L761.964 330.43C765.647 326.662 769.255 321.747 773.536 318.761L773.516 410.721C773.512 425.685 774.224 441.032 773.462 455.958C772.802 456.195 772.263 456.451 771.749 456.944C764.137 464.245 757.081 472.201 749.608 479.664C742.735 486.526 695.475 531.998 693.212 536.913C693.133 537.084 693.091 537.27 693.03 537.448L538.713 537.358C539.626 537.171 541.223 537.075 542.015 536.683C543.33 536.033 585.311 493.964 588.478 490.839L689.704 392.101C683.623 392.135 676.091 392.935 670.215 391.607C679.276 391.42 716.72 393.013 722.184 390.762C725.007 389.598 727.357 387.393 728.398 384.487C729.231 382.159 729.136 379.586 727.981 377.382C726.371 374.307 723.607 372.43 720.382 371.413Z"/>
	<path fill="#DFC6F3" d="M693.03 537.448C693.091 537.27 693.133 537.084 693.212 536.913C695.475 531.998 742.735 486.526 749.608 479.664C757.081 472.201 764.137 464.245 771.749 456.944C772.263 456.451 772.802 456.195 773.462 455.958L773.517 544.55L773.516 838.403L474.681 838.236C477.367 834.097 482.064 830.382 485.605 826.929Q494.194 818.594 502.635 810.109L581.185 731.002C572.388 730.942 499.837 730.027 496.45 731.368C493.255 731.216 489.967 730.838 487.486 728.599C485.48 726.789 484.223 723.991 484.094 721.306C483.953 718.384 484.811 715.385 486.937 713.309C492.417 707.957 513.205 709.937 520.907 709.969C523.845 705.567 529.378 701.145 533.151 697.336L562.742 667.6Q617.262 613.685 671.002 558.993C682.07 558.681 693.207 558.819 704.283 558.831C708.787 558.836 713.604 559.455 718.053 558.828C719.96 558.559 721.714 557.865 723.259 556.706Q723.705 556.367 724.113 555.984Q724.521 555.6 724.886 555.176Q725.251 554.751 725.569 554.29Q725.887 553.83 726.155 553.338Q726.423 552.846 726.637 552.329Q726.852 551.812 727.01 551.275Q727.169 550.738 727.27 550.187Q727.371 549.636 727.414 549.078C727.646 546.191 726.693 543.166 724.713 541.028C723.343 539.549 721.523 538.558 719.574 538.08C713.006 536.467 700.241 537.529 693.03 537.448Z"/>
	<path fill="#22144B" d="M520.907 709.969C549.016 710.052 577.241 710.661 605.335 710.085L682.22 710.03L707.021 709.987C711.231 709.985 715.72 709.705 719.897 710.104C722.364 710.34 724.761 711.538 726.476 713.318Q726.873 713.729 727.225 714.179Q727.576 714.63 727.879 715.115Q728.181 715.599 728.43 716.114Q728.68 716.628 728.874 717.165Q729.068 717.703 729.204 718.258Q729.34 718.812 729.417 719.379Q729.494 719.945 729.511 720.516Q729.528 721.087 729.485 721.657C729.268 724.315 728.109 726.738 726.017 728.427C723.776 730.237 720.89 730.77 718.092 731.002C712.711 731.447 707.171 731.166 701.769 731.147L672.888 731.058L581.185 731.002C572.388 730.942 499.837 730.027 496.45 731.368C493.255 731.216 489.967 730.838 487.486 728.599C485.48 726.789 484.223 723.991 484.094 721.306C483.953 718.384 484.811 715.385 486.937 713.309C492.417 707.957 513.205 709.937 520.907 709.969Z"/>
	<path fill="#FDFCFE" d="M693.03 537.448C693.091 537.27 693.133 537.084 693.212 536.913C695.475 531.998 742.735 486.526 749.608 479.664C757.081 472.201 764.137 464.245 771.749 456.944C772.263 456.451 772.802 456.195 773.462 455.958L773.517 544.55C768.326 546.555 721.148 595.213 712.355 604L645.248 670.749C632.035 683.876 619.012 697.451 605.335 710.085C577.241 710.661 549.016 710.052 520.907 709.969C523.845 705.567 529.378 701.145 533.151 697.336L562.742 667.6Q617.262 613.685 671.002 558.993C682.07 558.681 693.207 558.819 704.283 558.831C708.787 558.836 713.604 559.455 718.053 558.828C719.96 558.559 721.714 557.865 723.259 556.706Q723.705 556.367 724.113 555.984Q724.521 555.6 724.886 555.176Q725.251 554.751 725.569 554.29Q725.887 553.83 726.155 553.338Q726.423 552.846 726.637 552.329Q726.852 551.812 727.01 551.275Q727.169 550.738 727.27 550.187Q727.371 549.636 727.414 549.078C727.646 546.191 726.693 543.166 724.713 541.028C723.343 539.549 721.523 538.558 719.574 538.08C713.006 536.467 700.241 537.529 693.03 537.448Z"/>
</svg>
